# xmcd
#
# Track frame offsets:
#	182
#	19925
#	37405
#	56575
#	76627
#	90240
#	107980
#	126735
#	138942
#	151190
#	169920
#	188082
#	202400
#	213885
#	229160
#	245622
#	258742
#	274632
#	293610
#	305607
#
# Disc length: 4233
#
# Revision: 5
# Processed by: cddbd v1.5.1PL0 Copyright (c) Steve Scherf et al.
# Submitted via: CDex 1.51
# Normalized: r4:DSETVAR1,TDELIM( - )
#
DISCID=27108714
DTITLE=Various Artist - Ultimate Country Disk 1
DYEAR=1998
DGENRE=Country
TTITLE0=The Mavericks - Dance The Night Away
TTITLE1=Allison Moorer - A Soft Place To Fall
TTITLE2=Mindy McCready - Oh Romeo
TTITLE3=Dwight Yoakam - A 1000 Miles from Nowhere
TTITLE4=Van Morrison - Brown Eyed Girl
TTITLE5=Lee Greenwood - The Wind Beneath My Wings
TTITLE6=Kenny Rogers and Dolly Parton - Islands in the Stream
TTITLE7=Patsy Cline - Crazy
TTITLE8=Loretta Lynn - I Fall to Pieces
TTITLE9=Kris Kristofferson - Me And Bobby McGee
TTITLE10=Johnny Cash - One Piece at a Time
TTITLE11=Glen Campbell - Rhinestone Cowboy
TTITLE12=Karl Denver - Wimoweh
TTITLE13=Don Williams - I Recall a Gypsy Woman
TTITLE14=Adam Couldwell - When Soul Meets Soul
TTITLE15=Charlie Rich - Behind Closed Doors
TTITLE16=Billie Jo Spears - Blanket On the Ground
TTITLE17=Nanci Griffith - From a Distance
TTITLE18=Crystal Gayle - I've Cried the Blue Right Out of My Eyes
TTITLE19=Dolly Parton - Jolene
EXTD=YEAR: 1998
EXTT0=
EXTT1=
EXTT2=
EXTT3=
EXTT4=
EXTT5=
EXTT6=
EXTT7=
EXTT8=
EXTT9=
EXTT10=
EXTT11=
EXTT12=
EXTT13=
EXTT14=
EXTT15=
EXTT16=
EXTT17=
EXTT18=
EXTT19=
PLAYORDER=
